<svg width="20" height="20" viewBox="0 0 20 20" fill="none" xmlns="http://www.w3.org/2000/svg">
    <path
        d="M3.33333 0.833374H16.6667C16.8877 0.833374 17.0996 0.921171 17.2559 1.07745C17.4122 1.23373 17.5 1.44569 17.5 1.66671V5.00004C17.5 5.22105 17.4122 5.43302 17.2559 5.5893C17.0996 5.74558 16.8877 5.83337 16.6667 5.83337H3.33333C3.11232 5.83337 2.90036 5.74558 2.74408 5.5893C2.5878 5.43302 2.5 5.22105 2.5 5.00004V1.66671C2.5 1.44569 2.5878 1.23373 2.74408 1.07745C2.90036 0.921171 3.11232 0.833374 3.33333 0.833374ZM3.33333 7.50004H16.6667C16.8877 7.50004 17.0996 7.58784 17.2559 7.74412C17.4122 7.9004 17.5 8.11236 17.5 8.33337V11.6667C17.5 11.8877 17.4122 12.0997 17.2559 12.256C17.0996 12.4122 16.8877 12.5 16.6667 12.5H3.33333C3.11232 12.5 2.90036 12.4122 2.74408 12.256C2.5878 12.0997 2.5 11.8877 2.5 11.6667V8.33337C2.5 8.11236 2.5878 7.9004 2.74408 7.74412C2.90036 7.58784 3.11232 7.50004 3.33333 7.50004ZM3.33333 14.1667H16.6667C16.8877 14.1667 17.0996 14.2545 17.2559 14.4108C17.4122 14.5671 17.5 14.779 17.5 15V18.3334C17.5 18.5544 17.4122 18.7664 17.2559 18.9226C17.0996 19.0789 16.8877 19.1667 16.6667 19.1667H3.33333C3.11232 19.1667 2.90036 19.0789 2.74408 18.9226C2.5878 18.7664 2.5 18.5544 2.5 18.3334V15C2.5 14.779 2.5878 14.5671 2.74408 14.4108C2.90036 14.2545 3.11232 14.1667 3.33333 14.1667ZM7.5 4.16671H8.33333V2.50004H7.5V4.16671ZM7.5 10.8334H8.33333V9.16671H7.5V10.8334ZM7.5 17.5H8.33333V15.8334H7.5V17.5ZM4.16667 2.50004V4.16671H5.83333V2.50004H4.16667ZM4.16667 9.16671V10.8334H5.83333V9.16671H4.16667ZM4.16667 15.8334V17.5H5.83333V15.8334H4.16667Z"
        fill="rgb(212 212 216)" />
</svg>