<svg width="20" height="20" viewBox="0 0 20 20" fill="none" xmlns="http://www.w3.org/2000/svg">
    <g clip-path="url(#clip0_313_1717)">
        <path
            d="M10 6.66667L7.5 8.125V11.0417L10 12.5L12.5 11.0417V8.125L10 6.66667ZM11.2642 8.36667L9.98917 9.11L8.725 8.3725L10 7.62917L11.2642 8.36667ZM8.325 9.10167L9.56167 9.82333V11.2817L8.325 10.5608V9.10167ZM10.3867 11.3125V9.84L11.675 9.08833V10.5608L10.3867 11.3125ZM2.5 0L0 1.45833V4.375L2.5 5.83333L5 4.375V1.45833L2.5 0ZM3.76417 1.7L2.48917 2.44333L1.225 1.70583L2.5 0.9625L3.76417 1.7ZM0.825 2.43417L2.06167 3.15583V4.61417L0.825 3.895V2.43417ZM2.88667 4.645V3.17333L4.175 2.42167V3.89417L2.88667 4.645ZM2.5 14.1667L0 15.625V18.5417L2.5 20L5 18.5417V15.625L2.5 14.1667ZM3.76417 15.8667L2.48917 16.61L1.225 15.8725L2.5 15.1292L3.76417 15.8667ZM0.825 16.6017L2.06167 17.3233V18.7817L0.825 18.0617V16.6017ZM2.88667 18.8125V17.34L4.175 16.5883V18.0608L2.88667 18.8125ZM17.5 0L15 1.45833V4.375L17.5 5.83333L20 4.375V1.45833L17.5 0ZM18.7642 1.7L17.4892 2.44333L16.225 1.70583L17.5 0.9625L18.7642 1.7ZM15.825 2.435L17.0617 3.15667V4.615L15.825 3.89417V2.435ZM17.8867 4.64583V3.17333L19.175 2.42167V3.89417L17.8867 4.64583ZM17.5 14.1667L15 15.625V18.5417L17.5 20L20 18.5417V15.625L17.5 14.1667ZM18.7642 15.8667L17.4892 16.61L16.225 15.8725L17.5 15.1292L18.7642 15.8667ZM15.825 16.6017L17.0617 17.3233V18.7817L15.825 18.0608V16.6017ZM17.8867 18.8125V17.34L19.175 16.5883V18.0608L17.8867 18.8125ZM7.5 2.5H12.5V3.33333H7.5V2.5ZM7.5 16.6667H12.5V17.5H7.5V16.6667ZM2.91667 7.5V12.5H2.08333V7.5H2.91667ZM6.0775 7.35667L4.31 5.58917L4.89917 5L6.66667 6.76667L6.0775 7.35667ZM13.3333 6.91083L15.1008 5.14333L15.69 5.7325L13.9225 7.5L13.3333 6.91083ZM6.77333 12.3992L5.00583 14.1667L4.41667 13.5775L6.18417 11.81L6.77333 12.3992ZM14.0658 11.7742L15.8333 13.5417L15.2442 14.1308L13.4767 12.3633L14.0658 11.7742ZM17.9167 7.5V12.5H17.0833V7.5H17.9167Z"
            fill="rgb(212 212 216)" />
    </g>
    <defs>
        <clipPath id="clip0_313_1717">
            <rect width="20" height="20" fill="white" />
        </clipPath>
    </defs>
</svg>