<svg width="20" height="20" viewBox="0 0 20 20" fill="none" xmlns="http://www.w3.org/2000/svg">
    <path
        d="M2.50001 14.375V17.5H5.62501L14.8417 8.27499L11.7167 5.14999L2.50001 14.375ZM18.8417 15.3L15.3 18.8417L10.9667 14.5083L12.4417 13.0333L13.275 13.8667L15.3333 11.8L16.5167 12.9833L15.3 14.1667L16.1833 15L17.3667 13.8333L18.8417 15.3ZM5.50834 9.02499L1.15834 4.69999L4.70001 1.15833L6.16667 2.63333L4.10834 4.69999L5.00001 5.58333L7.05001 3.51666L8.23334 4.69999L7.05001 5.87499L7.88334 6.70833L5.50834 9.02499ZM17.2583 5.83333C17.5833 5.50833 17.5833 4.99999 17.2583 4.65833L15.3083 2.74166C15 2.41666 14.4583 2.41666 14.1333 2.74166L12.6 4.26666L15.725 7.39166L17.2583 5.83333Z"
        fill="rgb(212 212 216)" />
</svg>