<svg width="20" height="20" viewBox="0 0 20 20" fill="none" xmlns="http://www.w3.org/2000/svg">
    <path
        d="M5.00001 17.5V15.8333L5.83334 15H3.33334C2.87501 15 2.48251 14.8367 2.15584 14.51C1.82917 14.1833 1.66612 13.7911 1.66667 13.3333V4.16667C1.66667 3.70833 1.83001 3.31583 2.15667 2.98917C2.48334 2.6625 2.87556 2.49945 3.33334 2.5H16.6667C17.125 2.5 17.5175 2.66333 17.8442 2.99C18.1708 3.31667 18.3339 3.70889 18.3333 4.16667V13.3333C18.3333 13.7917 18.17 14.1842 17.8433 14.5108C17.5167 14.8375 17.1245 15.0006 16.6667 15H14.1667L15 15.8333V17.5H5.00001ZM3.33334 13.3333H16.6667V4.16667H3.33334V13.3333Z"
        fill="rgb(212 212 216)" />
</svg>